# xmcd
#
# Track frame offsets:
# 150
# 48960
# 63206
# 88205
# 110693
# 129451
# 179051
# 190193
# 209955
# 225750
# 242928
# 265381
#
# Disc length: 3704 seconds
#
#
# Revision: 0
# Processed by: cddbd v1.5.1PL2 Copyright (c) Steve Scherf et al.
# Submitted via: FreeRIP 2.945 
#
DISCID=b30e760c
DTITLE=Eric Clapton - Legendarios del S .xx  CD2
DYEAR=1900
DGENRE=Blues
TTITLE0=Tell the truth
TTITLE1=Out on the water coast
TTITLE2=Let it grow
TTITLE3=Five long years
TTITLE4=They call it stormy monday
TTITLE5=Willie and the hand jive
TTITLE6=Fur your love
TTITLE7=Wang-Dang-Doodle
TTITLE8=Louise
TTITLE9=Early in the morning
TTITLE10=First time I meet the blues
TTITLE11=Freight Loader
EXTD=
EXTT0=
EXTT1=
EXTT2=
EXTT3=
EXTT4=
EXTT5=
EXTT6=
EXTT7=
EXTT8=
EXTT9=
EXTT10=
EXTT11=
PLAYORDER=
